<?xml version="1.0" encoding="UTF-8" standalone="no"?>
<!DOCTYPE svg PUBLIC "-//W3C//DTD SVG 1.1//EN" "http://www.w3.org/Graphics/SVG/1.1/DTD/svg11.dtd">
<svg width="100%" height="100%" viewBox="0 0 34 34" version="1.1" xmlns="http://www.w3.org/2000/svg" xmlns:xlink="http://www.w3.org/1999/xlink" xml:space="preserve" xmlns:serif="http://www.serif.com/" style="fill-rule:evenodd;clip-rule:evenodd;stroke-linejoin:round;stroke-miterlimit:2;">
    <path d="M17,2C25.279,2 32,8.721 32,17C32,25.279 25.279,32 17,32C8.721,32 2,25.279 2,17C2,8.721 8.721,2 17,2ZM17.006,13.47L11.431,7.895C11.15,7.614 10.769,7.456 10.371,7.456C9.974,7.456 9.592,7.614 9.311,7.895C8.863,8.343 8.343,8.863 7.895,9.311C7.614,9.592 7.456,9.974 7.456,10.371C7.456,10.769 7.614,11.15 7.895,11.431L13.47,17.006L7.901,22.575C7.62,22.856 7.462,23.238 7.462,23.635C7.462,24.032 7.62,24.414 7.901,24.695C8.345,25.139 8.861,25.655 9.305,26.099C9.586,26.38 9.968,26.538 10.365,26.538C10.762,26.538 11.144,26.38 11.425,26.099L16.994,20.53L22.569,26.105C22.85,26.386 23.231,26.544 23.629,26.544C24.026,26.544 24.408,26.386 24.689,26.105C25.137,25.657 25.657,25.137 26.105,24.689C26.386,24.408 26.544,24.026 26.544,23.629C26.544,23.231 26.386,22.85 26.105,22.569L20.53,16.994L26.099,11.425C26.38,11.144 26.538,10.762 26.538,10.365C26.538,9.968 26.38,9.586 26.099,9.305C25.655,8.861 25.139,8.345 24.695,7.901C24.414,7.62 24.032,7.462 23.635,7.462C23.238,7.462 22.856,7.62 22.575,7.901L17.006,13.47Z" style="fill:rgb(199,199,199);"/>
</svg>
