<?xml version="1.0" encoding="UTF-8" standalone="no"?>
<!DOCTYPE svg PUBLIC "-//W3C//DTD SVG 1.1//EN" "http://www.w3.org/Graphics/SVG/1.1/DTD/svg11.dtd">
<svg width="100%" height="100%" viewBox="0 0 1000 718" version="1.1" xmlns="http://www.w3.org/2000/svg" xmlns:xlink="http://www.w3.org/1999/xlink" xml:space="preserve" xmlns:serif="http://www.serif.com/" style="fill-rule:evenodd;clip-rule:evenodd;stroke-linejoin:round;stroke-miterlimit:2;">
    <g transform="matrix(1,0,0,1,0,57)">
        <g transform="matrix(1.01524,0,0,1.06693,-15.2368,-56.8009)">
            <path d="M1000,655.26C999.13,655.247 998.262,655.24 997.393,655.24C973.977,655.24 951.689,660.105 931.482,668.878C920.637,673.546 908.35,673.546 897.505,668.879C877.298,660.105 855.01,655.24 831.595,655.24C808.18,655.24 785.892,660.105 765.685,668.878C754.84,673.546 742.552,673.546 731.708,668.879C711.501,660.105 689.213,655.24 665.798,655.24C642.382,655.24 620.094,660.105 599.887,668.878C589.042,673.546 576.755,673.546 565.91,668.879C545.703,660.105 523.415,655.24 500,655.24C476.585,655.24 454.297,660.105 434.09,668.878C423.245,673.546 410.957,673.546 400.113,668.879C379.906,660.105 357.618,655.24 334.202,655.24C310.787,655.24 288.499,660.105 268.292,668.878C257.447,673.546 245.16,673.546 234.315,668.879C214.108,660.105 191.82,655.24 168.405,655.24C144.99,655.24 122.702,660.105 102.495,668.878C91.65,673.546 79.362,673.546 68.518,668.879C48.311,660.105 26.023,655.24 2.607,655.24C1.738,655.24 0.87,655.247 0,655.26L0,111.647C0,111.647 55.332,39.301 207.733,89.174C946.284,330.866 1000,0 1000,0L1000,655.26Z" style="fill:url(#_Radial1);"/>
        </g>
    </g>
    <defs>
        <radialGradient id="_Radial1" cx="0" cy="0" r="1" gradientUnits="userSpaceOnUse" gradientTransform="matrix(-519.527,299.677,315.97,492.739,661.324,219.156)"><stop offset="0" style="stop-color:rgb(77,197,201);stop-opacity:1"/><stop offset="1" style="stop-color:rgb(64,35,150);stop-opacity:1"/></radialGradient>
    </defs>
</svg>
