<?xml version="1.0" encoding="UTF-8" standalone="no"?>
<!DOCTYPE svg PUBLIC "-//W3C//DTD SVG 1.1//EN" "http://www.w3.org/Graphics/SVG/1.1/DTD/svg11.dtd">
<svg width="100%" height="100%" viewBox="0 0 1001 481" version="1.1" xmlns="http://www.w3.org/2000/svg" xmlns:xlink="http://www.w3.org/1999/xlink" xml:space="preserve" xmlns:serif="http://www.serif.com/" style="fill-rule:evenodd;clip-rule:evenodd;stroke-linejoin:round;stroke-miterlimit:2;">
    <g id="Prancheta1" transform="matrix(1,0,0,1,-9.94759e-14,-219.555)">
        <rect x="0" y="219.555" width="1000.97" height="480.445" style="fill:none;"/>
        <clipPath id="_clip1">
            <rect x="0" y="219.555" width="1000.97" height="480.445"/>
        </clipPath>
        <g clip-path="url(#_clip1)">
            <g transform="matrix(1,0,0,0.860596,1.81188e-13,90.1095)">
                <g transform="matrix(1,0,0,0.372589,1.77635e-14,445.04)">
                    <path d="M1000,709.328L0,709.328L0,111.647C0,111.647 35.989,-103.767 129.859,-160.98C166.3,-183.044 203.987,-173.321 238.771,-132.88C1059.79,820.755 1000,-789.025 1000,-789.025L1000,709.328Z" style="fill:url(#_Radial2);"/>
                </g>
                <g transform="matrix(-1,1.42303e-16,3.9268e-17,0.372589,1000.97,512.435)">
                    <path d="M1000,528.445L0,528.445L0,111.647C0,111.647 35.989,-103.767 129.859,-160.98C166.3,-183.044 203.987,-173.321 238.771,-132.88C1059.79,820.755 1000,-789.025 1000,-789.025L1000,528.445Z" style="fill:url(#_Radial3);"/>
                </g>
            </g>
        </g>
    </g>
    <defs>
        <radialGradient id="_Radial2" cx="0" cy="0" r="1" gradientUnits="userSpaceOnUse" gradientTransform="matrix(676.998,0,0,1177.56,999.997,709.328)"><stop offset="0" style="stop-color:rgb(23,162,184);stop-opacity:0.8"/><stop offset="1" style="stop-color:rgb(64,35,150);stop-opacity:0.8"/></radialGradient>
        <radialGradient id="_Radial3" cx="0" cy="0" r="1" gradientUnits="userSpaceOnUse" gradientTransform="matrix(676.998,0,0,1177.56,999.997,709.328)"><stop offset="0" style="stop-color:rgb(23,162,184);stop-opacity:0.3"/><stop offset="1" style="stop-color:rgb(64,35,150);stop-opacity:0.3"/></radialGradient>
    </defs>
</svg>
